# xmcd CD database file
#
# Track frame offsets:
#	150
#	21968
#	36976
#	57013
#	66862
#	84954
#	101086
#	115882
#	128020
#	140955
#	155152
#	175124
#	187603
#	201333
#	215767
#	227409
#	239586
#	251108
#	280214
#	295218
#	318513
#
# Disc length: 4409 seconds
#
# Revision: 1
# Processed by: cddbd v1.5PL3 Copyright (c) Steve Scherf et al.
# Submitted via: CDex 1.51
#
DISCID=3d113715
DTITLE=Blues For The Ziot Train - Blues For The Ziot Train
DYEAR=1900
DGENRE=Blues
TTITLE0=Pinetop Perkins/ You don't have to go
TTITLE1=Pinetop Perkins/ Boogie Woogie
TTITLE2=Professor Longhair/ Her Mind is Gone
TTITLE3=Professor Longhair/ Jambalaya
TTITLE4=Professor Longhair/ Mardi Grass
TTITLE5=Professor Longhair/ Mean old World
TTITLE6=Professor Longhair/ Meet Me Tomorrow Night
TTITLE7=Professor Longhair/ Boogie Woogie
TTITLE8=Bessie Smith/ Nobody's Blues But Mine
TTITLE9=Bessie Smith/ St. Louis Blues
TTITLE10=Pinetop Perkins/ Unknown
TTITLE11=Unknown/ Track Unknown
TTITLE12=Bessie Smith/ Alexander Ragtime Band
TTITLE13=Elmore James/ My Baby's Gone
TTITLE14=Elmore James/ Shake your Moneymaker
TTITLE15=Elmore James/ The Sun is Shining
TTITLE16=Elmore James/ Fine Little Mama
TTITLE17=Albert Collins/ Blackjack
TTITLE18=Elmore James/ It Hurts me
TTITLE19=Buddy Guy/ I Could Cry
TTITLE20=George Thorogood/ Hot Rod Lincoln
EXTD=
EXTT0=
EXTT1=
EXTT2=
EXTT3=
EXTT4=
EXTT5=
EXTT6=
EXTT7=
EXTT8=
EXTT9=
EXTT10=
EXTT11=
EXTT12=
EXTT13=
EXTT14=
EXTT15=
EXTT16=
EXTT17=
EXTT18=
EXTT19=
EXTT20=
PLAYORDER=
